<?xml version="1.0" encoding="utf-8"?>
<!-- Generator: Adobe Illustrator 16.0.0, SVG Export Plug-In . SVG Version: 6.00 Build 0)  -->
<!DOCTYPE svg PUBLIC "-//W3C//DTD SVG 1.1//EN" "http://www.w3.org/Graphics/SVG/1.1/DTD/svg11.dtd">
<svg version="1.1" id="Calque_1" xmlns="http://www.w3.org/2000/svg" xmlns:xlink="http://www.w3.org/1999/xlink" x="0px" y="0px"
	 width="141.732px" height="141.732px" viewBox="0 0 141.732 141.732" enable-background="new 0 0 141.732 141.732"
	 xml:space="preserve">
<g>
	<defs>
		<rect id="SVGID_1_" width="141.732" height="141.732"/>
	</defs>
	<clipPath id="SVGID_2_">
		<use xlink:href="#SVGID_1_"  overflow="visible"/>
	</clipPath>
	<path clip-path="url(#SVGID_2_)" fill="#325466" d="M116.734,8.743h20.053v19.32c-5.252,5.27-11.662,10.42-16.71,15.594
		c-1.692,1.728-2.779,4.945-5.57,4.819c-2.911-9.465-8.138-16.613-14.854-22.279C105.421,20.458,111.59,15.116,116.734,8.743"/>
	<path clip-path="url(#SVGID_2_)" fill="#325466" d="M49.145,124.24c0.811-2.279,3.379-2.803,4.454-4.825
		c13.018,9.537,18.732-6.338,24.14-14.488c2.64-3.979,5.635-8.373,9.284-12.623c8.024-9.344,17.646-15.479,16.332-32.68
		c-1.453-19.2-19.909-35.07-41.96-28.966C47.77,34.433,37.117,46.941,37.994,66.309c-1.297,0.865-5.156-1.974-6.681-3.343
		c0.451-14.248,5.366-24.122,13.373-30.826c6.518-5.462,16.613-10.173,28.971-9.285c19.194,1.38,34.859,15.815,36.39,35.652
		c1.759,22.801-13.804,32.741-23.402,45.68c-4.494,6.074-7.861,15.954-12.615,20.432C68.465,129.846,54.505,131.923,49.145,124.24"
		/>
	<path clip-path="url(#SVGID_2_)" fill="#325466" d="M88.878,81.163c-1.734-1.235-3.841-2.105-5.569-3.343
		c4.207-4.748,8.942-11.086,6.691-20.425c-4.729-19.56-35.519-19.884-39.007,1.489c-2.064-0.901-3.961-1.981-5.57-3.349
		c2.815-20.173,32.663-26.379,45.309-11.14C98.625,53.896,99.814,72.412,88.878,81.163"/>
	<path clip-path="url(#SVGID_2_)" fill="#325466" d="M25.002,140.21H5.322v-20.053c10.809-10.113,20.682-21.169,31.93-30.826
		c7.923,4.826,16.374,9.123,24.14,14.111C49.707,116.138,36.478,127.3,25.002,140.21"/>
</g>
</svg>
